<svg width="19" height="19" viewBox="0 0 19 19" fill="none" xmlns="http://www.w3.org/2000/svg">
<path fill-rule="evenodd" clip-rule="evenodd" d="M2.5607 0.43934C1.97492 -0.146447 1.02517 -0.146447 0.439383 0.43934C-0.146403 1.02513 -0.146403 1.97487 0.439383 2.56066L7.15688 9.27815L0.43934 15.9957C-0.146447 16.5815 -0.146447 17.5312 0.43934 18.117C1.02513 18.7028 1.97487 18.7028 2.56066 18.117L9.2782 11.3995L15.9957 18.117C16.5815 18.7028 17.5313 18.7028 18.1171 18.117C18.7028 17.5312 18.7028 16.5815 18.1171 15.9957L11.3995 9.27815L18.117 2.56066C18.7028 1.97488 18.7028 1.02513 18.117 0.439344C17.5312 -0.146442 16.5815 -0.146442 15.9957 0.439344L9.2782 7.15683L2.5607 0.43934Z" fill="#F98C37"/>
</svg>
