<svg width="138" height="115" viewBox="0 0 138 115" fill="none" xmlns="http://www.w3.org/2000/svg">
<path d="M0.670898 7.73647V22.4976L3.94548 23.6629L78.8516 111.064L88.266 113.783M0.670898 7.73647L48.5617 1.13281L57.5668 4.24042M0.670898 7.73647L8.85736 10.4556M88.266 113.783L136.975 107.18V97.4685M88.266 113.783V103.684M136.975 97.4685L127.97 94.7494M136.975 97.4685L88.266 103.684M127.97 94.7494V86.9804M127.97 94.7494L80.0796 100.576M127.97 86.9804L119.784 84.2612M127.97 86.9804L80.0796 93.1956M119.784 84.2612V76.8806M119.784 84.2612L70.6651 90.8649M119.784 76.8806L111.188 74.1615M119.784 76.8806L70.6651 83.0959M111.188 74.1615V66.7809M111.188 74.1615L62.0694 80.3767M111.188 66.7809L102.183 63.8115M111.188 66.7809L62.0694 72.6077M102.183 63.8115V56.2928M102.183 63.8115L53.4736 69.8885M102.183 56.2928L92.7686 53.0831M102.183 56.2928L53.4736 62.1195M92.7686 53.0831V45.4162M92.7686 53.0831L44.0591 59.0119M92.7686 45.4162L84.5821 42.9193M92.7686 45.4162L44.0591 51.6314M84.5821 42.9193V35.3164M84.5821 42.9193L34.7751 49.3007M84.5821 35.3164L75.1677 32.5973M84.5821 35.3164L34.7751 41.5317M75.1677 32.5973V25.1326M75.1677 32.5973L26.7509 38.8125M75.1677 25.1326L66.1626 22.1091M75.1677 25.1326L26.8676 31.0435M66.1626 22.1091V14.7286M66.1626 22.1091L17.8625 28.3243M66.1626 14.7286L57.5668 11.621M66.1626 14.7286L17.8625 20.5553M57.5668 11.621V4.24042M57.5668 11.621L8.85736 17.8362M57.5668 4.24042L8.85736 10.4556M8.85736 10.4556V17.8362M8.85736 17.8362L17.8625 20.5553M17.8625 20.5553V28.3243M17.8625 28.3243L26.8676 31.0435M26.8676 31.0435L26.7509 38.8125M26.7509 38.8125L34.7751 41.5317M34.7751 41.5317V49.3007M34.7751 49.3007L44.0591 51.6314M44.0591 51.6314V59.0119M44.0591 59.0119L53.4736 62.1195M53.4736 62.1195V69.8885M53.4736 69.8885L62.0694 72.6077M62.0694 72.6077V80.3767M62.0694 80.3767L70.6651 83.0959M70.6651 83.0959V90.8649M70.6651 90.8649L80.0796 93.1956M80.0796 93.1956V100.576M80.0796 100.576L88.266 103.684" stroke="#202020" stroke-width="0.777778"/>
</svg>
