<svg width="199" height="183" viewBox="0 0 199 183" fill="none" xmlns="http://www.w3.org/2000/svg">
<path fill-rule="evenodd" clip-rule="evenodd" d="M103 0H108V5H103V0ZM116 0H121V5H116V0ZM134 0H129V5H134V0ZM142 0H147V5H142V0ZM160 0H155V5H160V0ZM168 0H173V5H168V0ZM186 0H181V5H186V0ZM194 0H199V5H194V0ZM108 13H103V18H108V13ZM121 13H116V18H121V13ZM129 13H134V18H129V13ZM147 13H142V18H147V13ZM155 13H160V18H155V13ZM173 13H168V18H173V13ZM181 13H186V18H181V13ZM199 13H194V18H199V13ZM103 26H108V31H103V26ZM116 26H121V31H116V26ZM134 26H129V31H134V26ZM142 26H147V31H142V26ZM160 26H155V31H160V26ZM168 26H173V31H168V26ZM186 26H181V31H186V26ZM194 26H199V31H194V26ZM108 39H103V44H108V39ZM121 39H116V44H121V39ZM129 39H134V44H129V39ZM147 39H142V44H147V39ZM155 39H160V44H155V39ZM173 39H168V44H173V39ZM181 39H186V44H181V39ZM199 39H194V44H199V39ZM103 52H108V57H103V52ZM116 52H121V57H116V52ZM134 52H129V57H134V52ZM142 52H147V57H142V52ZM160 52H155V57H160V52ZM168 52H173V57H168V52ZM186 52H181V57H186V52ZM194 52H199V57H194V52ZM108 65H103V70H108V65ZM121 65H116V70H121V65ZM129 65H134V70H129V65ZM147 65H142V70H147V65ZM155 65H160V70H155V65ZM173 65H168V70H173V65ZM181 65H186V70H181V65ZM199 65H194V70H199V65ZM103 78H108V83H103V78ZM116 78H121V83H116V78ZM134 78H129V83H134V78ZM142 78H147V83H142V78ZM160 78H155V83H160V78ZM168 78H173V83H168V78ZM186 78H181V83H186V78ZM194 78H199V83H194V78ZM103 91H108V96H103V91ZM116 91H121V96H116V91ZM134 91H129V96H134V91ZM142 91H147V96H142V91ZM160 91H155V96H160V91ZM168 91H173V96H168V91ZM186 91H181V96H186V91ZM194 91H199V96H194V91Z" fill="#FDE4CF"/>
<path fill-rule="evenodd" clip-rule="evenodd" d="M0 23H8.33333V31.3333H0V23ZM21.6667 23H30V31.3333H21.6667V23ZM51.6667 23H43.3333V31.3333H51.6667V23ZM65 23H73.3333V31.3333H65V23ZM95 23H86.6667V31.3333H95V23ZM108.333 23H116.667V31.3333H108.333V23ZM138.333 23H130V31.3333H138.333V23ZM151.667 23H160V31.3333H151.667V23ZM8.33333 44.6667H0V53H8.33333V44.6667ZM30 44.6667H21.6667V53H30V44.6667ZM43.3333 44.6667H51.6667V53H43.3333V44.6667ZM73.3333 44.6667H65V53H73.3333V44.6667ZM86.6667 44.6667H95V53H86.6667V44.6667ZM116.667 44.6667H108.333V53H116.667V44.6667ZM130 44.6667H138.333V53H130V44.6667ZM160 44.6667H151.667V53H160V44.6667ZM21.6667 66.3333H30V74.6667H21.6667V66.3333ZM0 66.3337H8.33333V74.667H0V66.3337ZM51.6667 66.3333H43.3333V74.6667H51.6667V66.3333ZM65 66.3333H73.3333V74.6667H65V66.3333ZM95 66.3333H86.6667V74.6667H95V66.3333ZM108.333 66.3333H116.667V74.6667H108.333V66.3333ZM138.333 66.3333H130V74.6667H138.333V66.3333ZM151.667 66.3333H160V74.6667H151.667V66.3333ZM8.33333 88H0V96.3333H8.33333V88ZM30 88H21.6667V96.3333H30V88ZM43.3333 88H51.6667V96.3333H43.3333V88ZM73.3333 88H65V96.3333H73.3333V88ZM86.6667 88H95V96.3333H86.6667V88ZM116.667 88H108.333V96.3333H116.667V88ZM130 88H138.333V96.3333H130V88ZM160 88H151.667V96.3333H160V88ZM0 109.667H8.33333V118H0V109.667ZM21.6667 109.667H30V118H21.6667V109.667ZM51.6667 109.667H43.3333V118H51.6667V109.667ZM65 109.667H73.3333V118H65V109.667ZM95 109.667H86.6667V118H95V109.667ZM108.333 109.667H116.667V118H108.333V109.667ZM138.333 109.667H130V118H138.333V109.667ZM151.667 109.667H160V118H151.667V109.667ZM30 131.333H21.6667V139.667H30V131.333ZM8.33333 131.334H0V139.667H8.33333V131.334ZM43.3333 131.333H51.6667V139.667H43.3333V131.333ZM73.3333 131.333H65V139.667H73.3333V131.333ZM86.6667 131.333H95V139.667H86.6667V131.333ZM116.667 131.333H108.333V139.667H116.667V131.333ZM130 131.333H138.333V139.667H130V131.333ZM160 131.333H151.667V139.667H160V131.333ZM0 153H8.33333V161.333H0V153ZM21.6667 153H30V161.333H21.6667V153ZM51.6667 153H43.3333V161.333H51.6667V153ZM65 153H73.3333V161.333H65V153ZM95 153H86.6667V161.333H95V153ZM108.333 153H116.667V161.333H108.333V153ZM138.333 153H130V161.333H138.333V153ZM151.667 153H160V161.333H151.667V153ZM0 174.667H8.33333V183H0V174.667ZM21.6667 174.667H30V183H21.6667V174.667ZM51.6667 174.667H43.3333V183H51.6667V174.667ZM65 174.667H73.3333V183H65V174.667ZM95 174.667H86.6667V183H95V174.667ZM108.333 174.667H116.667V183H108.333V174.667ZM138.333 174.667H130V183H138.333V174.667ZM151.667 174.667H160V183H151.667V174.667Z" fill="white"/>
</svg>
