<svg width="160" height="52" viewBox="0 0 160 52" fill="none" xmlns="http://www.w3.org/2000/svg">
<path fill-rule="evenodd" clip-rule="evenodd" d="M0 0H8.33333V8.33333H0V0ZM21.6667 0H30V8.33333H21.6667V0ZM51.6667 0H43.3333V8.33333H51.6667V0ZM65 0H73.3333V8.33333H65V0ZM95 0H86.6667V8.33333H95V0ZM108.333 0H116.667V8.33333H108.333V0ZM138.333 0H130V8.33333H138.333V0ZM151.667 0H160V8.33333H151.667V0ZM8.33333 21.6667H0V30H8.33333V21.6667ZM30 21.6667H21.6667V30H30V21.6667ZM43.3333 21.6667H51.6667V30H43.3333V21.6667ZM73.3333 21.6667H65V30H73.3333V21.6667ZM86.6667 21.6667H95V30H86.6667V21.6667ZM116.667 21.6667H108.333V30H116.667V21.6667ZM130 21.6667H138.333V30H130V21.6667ZM160 21.6667H151.667V30H160V21.6667ZM30 43.3333H21.6667V51.6667H30V43.3333ZM8.33333 43.3337H0V51.667H8.33333V43.3337ZM43.3333 43.3333H51.6667V51.6667H43.3333V43.3333ZM73.3333 43.3333H65V51.6667H73.3333V43.3333ZM86.6667 43.3333H95V51.6667H86.6667V43.3333ZM116.667 43.3333H108.333V51.6667H116.667V43.3333ZM130 43.3333H138.333V51.6667H130V43.3333ZM160 43.3333H151.667V51.6667H160V43.3333Z" fill="#FBCBA4"/>
</svg>
